<svg id="my-svg" width="142" height="70" viewBox="0 0 142 70" fill="none" xmlns="http://www.w3.org/2000/svg">
    <g id="Frame 5091">
        <rect width="142" height="70" fill="white" />
        <path id="Vector"
            d="M24.42 33.56V24.31L24.41 23.95C24.41 19.31 21.7 16.99 16.25 16.99C13.58 16.99 11.53 17.58 10.12 18.76C8.71 19.94 7.97 21.42 7.9 23.22H12.48C12.63 21.44 13.88 20.56 16.23 20.56C17.28 20.56 18.09 20.77 18.65 21.17C19.19 21.57 19.47 22.13 19.47 22.81C19.47 23.49 19.14 23.93 18.49 24.19C17.84 24.44 16.6 24.7 14.79 24.95C12.31 25.29 10.4 25.91 9.04 26.81C7.68 27.7 7 29.11 7 31.03C7 32.95 7.62 34.29 8.85 35.3C10.09 36.3 11.73 36.8 13.76 36.8C15.31 36.8 16.5 36.58 17.36 36.14C18.21 35.7 18.91 35.07 19.47 34.26H19.55C19.7 35.34 19.9 36.05 20.15 36.36H25.1V36.18C24.65 35.86 24.42 34.99 24.42 33.56ZM19.59 29.69C19.59 30.67 19.17 31.51 18.36 32.23C17.54 32.94 16.42 33.3 15.01 33.3C12.99 33.3 11.99 32.5 11.99 30.9C11.99 30.07 12.29 29.45 12.9 29.04C13.5 28.64 14.54 28.28 16 27.96C17.84 27.54 19.03 27.17 19.59 26.86V29.69Z"
            fill="black" />
        <path id="Vector_2"
            d="M107.64 11.78C107.64 11.56 107.64 11.27 107.6 10.92H107.62L107.8 11.71L108.52 14.17H109.35L110.08 11.71C110.15 11.5 110.2 11.24 110.27 10.92L110.23 11.78V14.17H111.04V10H109.8L109.19 12.09C109.09 12.44 109.01 12.81 108.93 13.21L108.89 13.05C108.87 12.94 108.83 12.79 108.79 12.6C108.74 12.41 108.69 12.24 108.65 12.09L108.05 10H106.83V14.17H107.63V11.78H107.64Z"
            fill="black" />
        <path id="Vector_3" d="M113.64 14.17V10.71H114.94V10H111.49V10.71H112.78V14.17H113.64Z" fill="black" />
        <path id="Vector_4"
            d="M131.81 40.8V39.4C131.81 38.47 132.07 37.87 132.59 37.6C133.11 37.34 134 37.23 135.29 37.27V33.4C132.67 33.14 130.58 33.47 129.02 34.4C127.46 35.33 126.67 36.91 126.67 39.11V40.8H120.89V39.55C120.89 38.62 121.14 38.02 121.64 37.75C122.15 37.48 122.99 37.38 124.17 37.42V33.55C121.66 33.28 119.62 33.62 118.07 34.54C116.53 35.47 115.75 37.05 115.75 39.26V40.8H114.26L113.56 44.26H115.75V59.7H120.89V44.26H126.67V59.7H131.81V44.26H135.28L135.99 40.8H131.81Z"
            fill="black" />
        <path id="Vector_5"
            d="M99.61 27.15C99.61 25.21 100.14 23.78 101.2 22.88C102.26 21.97 103.66 21.6 105.39 21.78H105.51V17.4C105.23 17.31 104.83 17.25 104.3 17.25C103.19 17.25 102.27 17.52 101.54 18.04C100.81 18.56 100.14 19.39 99.53 20.49H99.42V17.47H94.47V36.36H99.6V27.15H99.61Z"
            fill="black" />
        <path id="Vector_6"
            d="M78.26 50.35C77.87 49.98 77.34 49.63 76.66 49.32C75.98 49.01 75.37 48.8 74.87 48.66C74.35 48.53 73.69 48.37 72.88 48.2C72.6 48.15 72.23 48.09 71.75 47.99C71.27 47.91 70.89 47.83 70.61 47.77C70.34 47.7 70.01 47.63 69.63 47.55C69.26 47.47 68.96 47.38 68.76 47.29C68.56 47.21 68.36 47.09 68.14 46.96C67.93 46.83 67.78 46.66 67.69 46.48C67.6 46.29 67.56 46.09 67.56 45.87C67.56 45.21 67.86 44.69 68.45 44.32C69.05 43.96 69.85 43.77 70.89 43.77C73.18 43.77 74.43 44.7 74.63 46.54H79.28C79.08 44.6 78.26 43.07 76.83 41.95C75.41 40.84 73.45 40.28 70.96 40.28C68.64 40.28 66.75 40.79 65.27 41.82C63.79 42.86 63.06 44.35 63.06 46.32C63.06 47.3 63.24 48.14 63.61 48.84C63.97 49.54 64.52 50.09 65.25 50.49C65.98 50.89 66.68 51.2 67.35 51.42C68.01 51.63 68.88 51.83 69.94 52.03C70.14 52.08 70.5 52.14 71.01 52.23C71.53 52.32 71.89 52.39 72.1 52.44C72.31 52.49 72.63 52.56 73.03 52.66C73.43 52.75 73.71 52.86 73.87 52.95C74.03 53.05 74.23 53.17 74.44 53.34C74.66 53.5 74.8 53.68 74.9 53.87C74.99 54.07 75.02 54.28 75.02 54.52C75.02 55.18 74.71 55.72 74.1 56.11C73.48 56.5 72.6 56.7 71.47 56.7C68.97 56.7 67.56 55.65 67.24 53.57H62.48C62.62 55.64 63.49 57.26 65.04 58.45C66.6 59.64 68.77 60.24 71.55 60.24C74 60.24 75.96 59.7 77.46 58.6C78.97 57.51 79.72 56.03 79.72 54.16C79.72 53.3 79.58 52.54 79.29 51.9C78.99 51.25 78.66 50.73 78.26 50.35Z"
            fill="black" />
        <path id="Vector_7"
            d="M65.8 22.14C66.26 22.8 66.37 23.77 66.12 25.02L63.86 36.36H68.93L71.27 24.42C71.7 22.24 71.42 20.45 70.44 19.04C69.46 17.65 67.99 16.95 66.05 16.95C64.72 16.95 63.61 17.19 62.75 17.69C61.88 18.18 61.02 18.97 60.2 20.08H60.08L62.04 10.02H56.97L51.75 36.36H56.82L58.86 26.05C59.14 24.6 59.68 23.42 60.48 22.52C61.29 21.6 62.28 21.15 63.46 21.15C64.54 21.15 65.32 21.48 65.79 22.14H65.8Z"
            fill="black" />
        <path id="Vector_8"
            d="M87.54 53.94L89.51 44.11H93.61L94.25 40.79H90.15L90.85 37.27C90.97 36.65 91.04 36.03 91.07 35.4L91.15 33.79V17.46H86.01V28.36C86.01 29.64 85.65 30.67 84.95 31.45C84.24 32.24 83.3 32.63 82.11 32.63C79.97 32.63 78.9 31.49 78.9 29.21V17.46H73.79V30.05C73.79 32.13 74.38 33.8 75.57 35.02C76.75 36.24 78.4 36.86 80.52 36.86C81.83 36.86 82.91 36.64 83.75 36.2C84.59 35.76 85.36 35.07 86.07 34.13H86.19L86.21 34.71C86.21 35.28 86.17 35.85 86.07 36.41L85.2 40.79H82.74L82.1 44.11H84.56L82.48 54.42C82.11 56.31 82.34 57.66 83.16 58.49C83.99 59.31 85.43 59.72 87.47 59.72C88.15 59.72 88.92 59.68 89.78 59.61L90.49 55.93L88.98 56C87.74 56 87.26 55.32 87.54 53.93V53.94Z"
            fill="black" />
        <path id="Vector_9"
            d="M47.71 11.5701H42.68V17.3701H39.99V21.7701H42.68V31.8601C42.68 33.4901 43.18 34.6501 44.19 35.3401C45.2 36.0401 46.45 36.4001 47.93 36.4001C49.29 36.4001 49.44 36.3501 50.21 36.3101L50.93 32.6301L49.63 32.6901C48.34 32.6901 47.7 32.0601 47.7 30.8101V21.7901H51.02V17.3901H47.7V11.5701H47.71Z"
            fill="black" />
        <path id="Vector_10"
            d="M105.61 51.1101C105.31 52.6601 104.76 53.8701 103.95 54.7401C103.14 55.6101 102.16 56.05 101 56.05C98.8499 56.05 98.0399 54.75 98.5699 52.14L100.84 40.8H95.7699L93.4299 52.73C92.9699 55.04 93.2299 56.8601 94.1799 58.2001C95.1399 59.5501 96.6599 60.21 98.7199 60.21C101.01 60.21 102.94 59.14 104.51 57H104.63L104.1 59.69H108.98L112.72 40.8H107.65L105.61 51.1101Z"
            fill="black" />
        <path id="R"
            d="M35.2108 28.9572L38.2479 36.0001L35.813 36.0001L33.0377 29.3238L30.6028 29.3238L30.6028 36.0001L28.4036 36.0001L28.4036 17.6729L33.4043 17.6729C34.5737 17.6729 35.5599 18.0743 36.3628 18.8772C37.1832 19.6627 37.5934 20.6227 37.5934 21.7572L37.5934 25.2394C37.5934 26.0772 37.3839 26.8278 36.965 27.491C36.5461 28.1369 35.9614 28.6256 35.2108 28.9572ZM35.3679 25.3179L35.3679 21.731C35.3679 21.1899 35.1672 20.7274 34.7657 20.3434C34.3643 19.9419 33.8843 19.7412 33.3257 19.7412L30.6028 19.7412L30.6028 27.2816L33.3257 27.2816C33.8843 27.2816 34.3643 27.0896 34.7657 26.7056C35.1672 26.3216 35.3679 25.859 35.3679 25.3179Z"
            fill="black">

            <animate id="animR" attributeName="d"
                values="M35.2108 28.9572L38.2479 36.0001L35.813 36.0001L33.0377 29.3238L30.6028 29.3238L30.6028 36.0001L28.4036 36.0001L28.4036 17.6729L33.4043 17.6729C34.5737 17.6729 35.5599 18.0743 36.3628 18.8772C37.1832 19.6627 37.5934 20.6227 37.5934 21.7572L37.5934 25.2394C37.5934 26.0772 37.3839 26.8278 36.965 27.491C36.5461 28.1369 35.9614 28.6256 35.2108 28.9572ZM35.3679 25.3179L35.3679 21.731C35.3679 21.1899 35.1672 20.7274 34.7657 20.3434C34.3643 19.9419 33.8843 19.7412 33.3257 19.7412L30.6028 19.7412L30.6028 27.2816L33.3257 27.2816C33.8843 27.2816 34.3643 27.0896 34.7657 26.7056C35.1672 26.3216 35.3679 25.859 35.3679 25.3179Z;M32.1812 37.5148C32.069 37.627 31.8259 37.5896 31.4519 37.4026C31.0778 37.2155 30.6664 36.9537 30.2176 36.6171C29.7687 36.2805 29.3573 35.9626 28.9833 35.6633C28.6467 35.3267 28.4597 35.0649 28.4223 34.8779C28.4223 32.8955 28.7402 30.9693 29.376 29.0992C30.0119 27.1916 30.7412 25.4898 31.5641 23.9937C32.3869 22.4602 33.0789 21.2446 33.6399 20.347C32.1064 21.5813 30.6103 22.1984 29.1516 22.1984C28.628 22.1984 28.1604 22.1236 27.749 21.974C27.0384 22.9091 26.3277 23.8441 25.6171 24.7792C24.9438 25.6768 24.2706 26.6119 23.5973 27.5844C23.4477 27.8088 23.3355 27.921 23.2607 27.921C23.2233 27.921 23.2046 27.8836 23.2046 27.8088C23.2046 27.6592 23.2607 27.4722 23.3729 27.2478C24.0461 26.2753 24.682 25.3215 25.2804 24.3865C25.9163 23.4514 26.496 22.535 27.0197 21.6374C26.309 21.1885 25.748 20.534 25.3365 19.6737C24.9625 18.8135 24.7755 17.9345 24.7755 17.0368C24.7755 15.6529 25.1869 14.6057 26.0098 13.895C26.8326 13.147 27.8238 12.7729 28.9833 12.7729C29.6565 12.7729 30.2737 12.9226 30.8347 13.2218C31.4332 13.4836 31.7324 13.9324 31.7324 14.5683C31.7324 15.2041 31.508 15.9709 31.0591 16.8685C30.6103 17.7662 30.1054 18.6452 29.5443 19.5054C28.9833 20.3283 28.5158 21.0015 28.1417 21.5252C28.4784 21.6374 28.8524 21.6935 29.2638 21.6935C30.1615 21.6935 31.0778 21.4504 32.0129 20.9641C32.9854 20.4779 33.7521 19.9355 34.3132 19.3371C34.4254 19.1875 34.6124 19.1127 34.8742 19.1127C35.2856 19.1127 35.7345 19.2436 36.2207 19.5054C36.7069 19.7672 36.8565 20.0104 36.6695 20.2348C36.1833 20.9454 35.5661 22.1049 34.8181 23.7132C34.07 25.2841 33.3781 27.1168 32.7423 29.2114C32.1064 31.3059 31.7137 33.5127 31.5641 35.8316C31.9381 35.1584 32.443 34.2607 33.0789 33.1387C33.7147 31.9792 34.4254 30.7262 35.2108 29.3797C35.9963 28.0332 36.8191 26.7054 37.6794 25.3963C38.5771 24.0498 39.4747 22.8342 40.3724 21.7496C40.5594 21.5252 40.709 21.4504 40.8212 21.5252C40.9334 21.6 40.9147 21.7309 40.7651 21.9179C39.8674 23.1148 38.9698 24.4426 38.0721 25.9013C37.1745 27.3226 36.3329 28.7813 35.5474 30.2774C34.762 31.7361 34.07 33.1013 33.4716 34.3729C32.8732 35.6446 32.443 36.6919 32.1812 37.5148ZM27.3002 21.1885C27.6742 20.6649 28.1043 19.8981 28.5906 18.8883C29.1142 17.8784 29.376 16.9994 29.376 16.2514C29.376 15.7652 29.2451 15.4098 28.9833 15.1854C28.7589 14.961 28.5158 14.8488 28.2539 14.8488C27.5807 14.8488 27.0197 15.2041 26.5708 15.9148C26.122 16.588 25.8976 17.3361 25.8976 18.1589C25.8976 18.7574 26.0098 19.3371 26.2342 19.8981C26.496 20.4592 26.8513 20.8893 27.3002 21.1885Z;M26.0186 36L26.0186 35.0945L27.8295 35.0945L28.2823 34.6418L28.2823 20.8331L27.8295 20.3803L26.0186 20.3803L26.0186 19.4749L33.2625 19.4749C36.9976 19.4749 39.4877 21.1953 39.4877 23.7759C39.4877 25.9265 37.6088 27.6242 34.8018 27.9864L40.7327 35.0945L42.5437 35.0945L42.5437 36L26.0186 36ZM30.546 27.1715L33.2625 27.1715C35.662 27.1715 36.9976 25.9491 36.9976 23.7759C36.9976 21.6027 35.662 20.3803 33.2625 20.3803L30.9987 20.3803L30.546 20.8331L30.546 27.1715ZM30.9987 35.0945L37.6767 35.0945L32.1306 28.077L30.546 28.077L30.546 34.6418L30.9987 35.0945Z;M32.1812 37.5148C32.069 37.627 31.8259 37.5896 31.4519 37.4026C31.0778 37.2155 30.6664 36.9537 30.2176 36.6171C29.7687 36.2805 29.3573 35.9626 28.9833 35.6633C28.6467 35.3267 28.4597 35.0649 28.4223 34.8779C28.4223 32.8955 28.7402 30.9693 29.376 29.0992C30.0119 27.1916 30.7412 25.4898 31.5641 23.9937C32.3869 22.4602 33.0789 21.2446 33.6399 20.347C32.1064 21.5813 30.6103 22.1984 29.1516 22.1984C28.628 22.1984 28.1604 22.1236 27.749 21.974C27.0384 22.9091 26.3277 23.8441 25.6171 24.7792C24.9438 25.6768 24.2706 26.6119 23.5973 27.5844C23.4477 27.8088 23.3355 27.921 23.2607 27.921C23.2233 27.921 23.2046 27.8836 23.2046 27.8088C23.2046 27.6592 23.2607 27.4722 23.3729 27.2478C24.0461 26.2753 24.682 25.3215 25.2804 24.3865C25.9163 23.4514 26.496 22.535 27.0197 21.6374C26.309 21.1885 25.748 20.534 25.3365 19.6737C24.9625 18.8135 24.7755 17.9345 24.7755 17.0368C24.7755 15.6529 25.1869 14.6057 26.0098 13.895C26.8326 13.147 27.8238 12.7729 28.9833 12.7729C29.6565 12.7729 30.2737 12.9226 30.8347 13.2218C31.4332 13.4836 31.7324 13.9324 31.7324 14.5683C31.7324 15.2041 31.508 15.9709 31.0591 16.8685C30.6103 17.7662 30.1054 18.6452 29.5443 19.5054C28.9833 20.3283 28.5158 21.0015 28.1417 21.5252C28.4784 21.6374 28.8524 21.6935 29.2638 21.6935C30.1615 21.6935 31.0778 21.4504 32.0129 20.9641C32.9854 20.4779 33.7521 19.9355 34.3132 19.3371C34.4254 19.1875 34.6124 19.1127 34.8742 19.1127C35.2856 19.1127 35.7345 19.2436 36.2207 19.5054C36.7069 19.7672 36.8565 20.0104 36.6695 20.2348C36.1833 20.9454 35.5661 22.1049 34.8181 23.7132C34.07 25.2841 33.3781 27.1168 32.7423 29.2114C32.1064 31.3059 31.7137 33.5127 31.5641 35.8316C31.9381 35.1584 32.443 34.2607 33.0789 33.1387C33.7147 31.9792 34.4254 30.7262 35.2108 29.3797C35.9963 28.0332 36.8191 26.7054 37.6794 25.3963C38.5771 24.0498 39.4747 22.8342 40.3724 21.7496C40.5594 21.5252 40.709 21.4504 40.8212 21.5252C40.9334 21.6 40.9147 21.7309 40.7651 21.9179C39.8674 23.1148 38.9698 24.4426 38.0721 25.9013C37.1745 27.3226 36.3329 28.7813 35.5474 30.2774C34.762 31.7361 34.07 33.1013 33.4716 34.3729C32.8732 35.6446 32.443 36.6919 32.1812 37.5148ZM27.3002 21.1885C27.6742 20.6649 28.1043 19.8981 28.5906 18.8883C29.1142 17.8784 29.376 16.9994 29.376 16.2514C29.376 15.7652 29.2451 15.4098 28.9833 15.1854C28.7589 14.961 28.5158 14.8488 28.2539 14.8488C27.5807 14.8488 27.0197 15.2041 26.5708 15.9148C26.122 16.588 25.8976 17.3361 25.8976 18.1589C25.8976 18.7574 26.0098 19.3371 26.2342 19.8981C26.496 20.4592 26.8513 20.8893 27.3002 21.1885Z;M35.2108 28.9572L38.2479 36.0001L35.813 36.0001L33.0377 29.3238L30.6028 29.3238L30.6028 36.0001L28.4036 36.0001L28.4036 17.6729L33.4043 17.6729C34.5737 17.6729 35.5599 18.0743 36.3628 18.8772C37.1832 19.6627 37.5934 20.6227 37.5934 21.7572L37.5934 25.2394C37.5934 26.0772 37.3839 26.8278 36.965 27.491C36.5461 28.1369 35.9614 28.6256 35.2108 28.9572ZM35.3679 25.3179L35.3679 21.731C35.3679 21.1899 35.1672 20.7274 34.7657 20.3434C34.3643 19.9419 33.8843 19.7412 33.3257 19.7412L30.6028 19.7412L30.6028 27.2816L33.3257 27.2816C33.8843 27.2816 34.3643 27.0896 34.7657 26.7056C35.1672 26.3216 35.3679 25.859 35.3679 25.3179Z"
                dur="2.2s" fill="freeze" calcMode="linear"
                keyTimes="0;0.25;0.5;0.75;1" />
        </path>

    </g>
</svg>