<svg width="103" height="34" viewBox="0 0 103 34" fill="none" xmlns="http://www.w3.org/2000/svg">
<path d="M79.2 6C73.4 6 68.6 10.8 68.6 16.6C68.6 22.4 73.4 27.2 79.2 27.2C85 27.2 89.8 22.4 89.8 16.6C89.8 10.8 85 6 79.2 6ZM79.2 23C75.7 23 73.7 20.1 73.7 16.6C73.7 13.1 75.7 10.2 79.2 10.2C82.7 10.2 84.7 13.1 84.7 16.6C84.7 20.1 82.7 23 79.2 23Z" fill="#00BC44"/>
<path d="M57.1 6C54.3 6 52.3 7.1 51 8.9V6.5H45.9V33.2H51V24.3C52.3 26.1 54.3 27.2 57.1 27.2C62.9 27.2 67.1 22.4 67.1 16.6C67.1 10.8 62.9 6 57.1 6ZM56.5 23C53 23 51 20.1 51 16.6C51 13.1 53 10.2 56.5 10.2C60 10.2 62 13.1 62 16.6C62 20.1 59.9 23 56.5 23Z" fill="#00BC44"/>
<path d="M99.7 22.3C98.8 22.3 98.2 21.6 98.2 20.8V10.3H102V6.5H98.2V0H93.1V6.5H89.7V10.3H93.1V21.9C93.1 24.5 95.2 26.7 97.9 26.7H102.4V22.4H99.7V22.3Z" fill="#00BC44"/>
<path d="M16.1 8.9C14.8 7.1 12.8 6 10 6C4.2 6 0 10.8 0 16.6C0 22.4 4.1 27.2 10 27.2C12.8 27.2 14.8 26.1 16.1 24.3V26.6H21.2V0H16.1V8.9ZM10.6 23C7.1 23 5.1 20.1 5.1 16.6C5.1 13.1 7.1 10.2 10.6 10.2C14.1 10.2 16.1 13.1 16.1 16.6C16.1 20.1 14.1 23 10.6 23Z" fill="#00BC44"/>
<path d="M33.7 6C27.9 6 23.1 10.8 23.1 16.6C23.1 22.4 27.9 27.2 33.7 27.2C36.9 27.2 39.9 25.8 41.9 23.3C42.6 22.4 43.2 21.5 43.6 20.4H38.3C37.4 22 35.8 23 33.7 23C30.8 23 28.9 21 28.3 18.2C28.3 18.2 43.6 18.2 43.9 18.2C43.9 18 43.9 17.7 43.9 17.5C43.9 10.2 39.7 6 33.7 6ZM38.6 14.7H28.8H28.4C29 12.1 30.9 10.2 33.7 10.2C36.5 10.2 38.4 12.1 39 14.7H38.6Z" fill="#00BC44"/>
</svg>
