<svg width="30" height="30" viewBox="0 0 30 30" fill="none" xmlns="http://www.w3.org/2000/svg">
<rect width="30" height="30" rx="6" fill="url(#paint0_linear_959_25)"/>
<path d="M8.19602 11.4194C8.06596 11.4393 7.97013 11.5453 7.97013 11.6711V14.1553C7.78531 14.0758 7.57312 14.0295 7.3267 14.0096C7.08027 13.9897 6.83385 13.9963 6.58058 14.0295C6.11512 14.0957 5.69073 14.2679 5.29371 14.5528C4.8967 14.8377 4.58183 15.2285 4.3491 15.7121C4.11637 16.2023 4 16.7853 4 17.4742C4 18.1632 4.10268 18.6666 4.31487 19.0376C4.52022 19.4086 4.81456 19.6603 5.19104 19.7862C5.56752 19.912 6.0056 19.9385 6.51898 19.8723C6.87492 19.8259 7.18295 19.7332 7.44306 19.6007C7.70317 19.4682 7.94275 19.2959 8.15495 19.0972L8.21655 19.3489C8.23709 19.4483 8.32607 19.5079 8.42875 19.4947L9.89359 19.2959C10.0168 19.2827 10.1126 19.1634 10.1126 19.0376V11.3267C10.1126 11.2406 10.0305 11.1677 9.94151 11.1809L8.20286 11.4194H8.19602ZM7.97013 17.7193C7.7374 17.9777 7.45675 18.13 7.12819 18.1764C6.79963 18.2228 6.56005 18.183 6.40946 18.0704C6.25887 17.9512 6.18357 17.6597 6.18357 17.1893C6.18357 16.719 6.27256 16.3282 6.44368 16.0433C6.61481 15.7585 6.84754 15.5995 7.12819 15.5597C7.47729 15.5134 7.75793 15.573 7.97013 15.7386V17.7193ZM14.6235 12.9563C14.3566 13.0292 14.0965 13.1219 13.8295 13.2411C13.4872 13.4001 13.2066 13.5591 12.9876 13.7247L12.9533 13.4796C12.9396 13.367 12.8438 13.2941 12.7343 13.314L11.0846 13.5393C10.9614 13.5525 10.8656 13.6717 10.8656 13.7976V18.9382C10.8656 19.0641 10.9614 19.1502 11.0846 19.137L12.7822 18.9051C12.9054 18.8918 13.0012 18.7726 13.0012 18.6467V15.3875C13.0012 15.2947 13.056 15.202 13.1381 15.1556C13.2545 15.096 13.3846 15.0298 13.542 14.9701C13.761 14.884 13.9801 14.8045 14.2128 14.7317C14.3703 14.6853 14.5208 14.6455 14.6577 14.6058C14.7673 14.5793 14.8563 14.4667 14.8563 14.3541V13.155C14.8563 13.0159 14.7399 12.9298 14.6098 12.9629L14.6235 12.9563ZM20.8867 12.6449C20.4487 12.2806 19.8326 12.1547 19.0249 12.2673C18.6758 12.3137 18.3678 12.4065 18.1077 12.539C17.8475 12.6714 17.608 12.8437 17.3889 13.0557L17.3273 12.7907C17.3068 12.6913 17.2178 12.6317 17.1151 12.6449L15.6571 12.8437C15.5339 12.8569 15.4381 12.9762 15.4381 13.102V20.8527C15.4381 20.9388 15.5202 21.0117 15.6092 20.9984L17.3479 20.76C17.4779 20.7401 17.5737 20.6341 17.5737 20.5082V17.9777C17.9434 18.1367 18.402 18.183 18.9359 18.1102C19.7436 17.9975 20.3802 17.6531 20.8457 17.0701C21.3111 16.4872 21.537 15.6988 21.537 14.6985C21.537 13.6982 21.318 13.0093 20.8799 12.6449H20.8867ZM19.107 16.1294C18.9428 16.3812 18.7032 16.5269 18.3883 16.5666C18.2035 16.5931 18.0529 16.5865 17.9365 16.56C17.8475 16.5401 17.7586 16.5004 17.6764 16.454C17.6148 16.4209 17.5737 16.3547 17.5737 16.2752V14.5197C17.5737 14.4468 17.608 14.3739 17.6627 14.3276C17.8818 14.1288 18.135 14.0096 18.4157 13.9698C18.7374 13.9235 18.9701 13.9765 19.1276 14.1222C19.285 14.2679 19.3603 14.5727 19.3603 15.0364C19.3603 15.5001 19.2782 15.8843 19.107 16.1361V16.1294ZM25.7467 15.5332C25.6098 15.5796 25.4729 15.6127 25.3429 15.6326C25.1101 15.6657 24.9322 15.6326 24.8227 15.5531C24.7063 15.4736 24.6515 15.308 24.6515 15.0761V13.2676L25.603 13.1352C25.7194 13.1219 25.8152 13.0093 25.822 12.8901L25.8768 11.6976C25.8768 11.5652 25.781 11.4724 25.6577 11.4923L24.6515 11.6314V9.14721C24.6515 9.04784 24.542 8.97497 24.4462 9.0081L22.6733 9.69042C22.5775 9.73017 22.509 9.82953 22.509 9.9289V11.9163L22.023 11.9825C21.8998 11.9957 21.804 12.115 21.804 12.2409V13.4266C21.804 13.5525 21.8998 13.6386 22.023 13.6254L22.509 13.5591V15.5332C22.509 16.1758 22.6733 16.666 22.995 17.0039C23.3236 17.3351 23.8438 17.4543 24.5625 17.355C25.0554 17.2887 25.4866 17.1629 25.8563 16.9774C25.9452 16.931 26 16.8383 26 16.7455V15.7253C26 15.5796 25.8699 15.4935 25.733 15.5399L25.7467 15.5332Z" fill="#B1C53D"/>
<defs>
<linearGradient id="paint0_linear_959_25" x1="15" y1="0" x2="15" y2="30" gradientUnits="userSpaceOnUse">
<stop stop-color="#1D1D1D"/>
<stop offset="1" stop-color="#2B2B2B"/>
</linearGradient>
</defs>
</svg>
