<svg viewBox="0 0 40 40" fill="none" xmlns="http://www.w3.org/2000/svg" data-name="lqt-logo" class="wh-4.5 lq-icon text-white hover:text-gray-100"><path d="M20 0C8.955 0 0 8.955 0 20s8.955 20 20 20 20-8.955 20-20S31.071 0 20 0zm8.697 27.071c-1.549-.258-2.452-1.187-3.768.052-2.529 2.296-3.716.025-5.6 1.858-2.194 2.142-3.561 3.2-5.497 3.638-3.38.775-5.213-1.419-5.677-2.76-.207-.595-.62-2.35.258-3.356 3.535-4.206 8.026-.31 8.955-6.322.155-.93 1.006-2.53 2.4-2.736.955-.155 2.348-.413 2.658-2.039.49-2.606 1.239-4.722 4.129-7.69 2.064-2.116 4.129-.542 4.748 1.368.568 1.703-1.367 5.858-5.651 6.787-4 .852-4.981 7.587-7.381 8.387-2.09.697-2.942.207-3.871 1.394-.465.619-.232 1.47.568 1.677 2.555.671 2.58-2.761 5.367-1.858 1.162.387 1.575 1.368 2.89.335 1.033-.825 1.033-2.374 2.71-3.406 6.53-4.155 7.871 5.523 2.762 4.671z" fill="currentColor"/></svg>